<?xml version="1.0" encoding="UTF-8"?>
<svg id="Layer_1" xmlns="http://www.w3.org/2000/svg" version="1.1" viewBox="0 0 1137.02 379.01">
  <!-- Generator: Adobe Illustrator 29.5.0, SVG Export Plug-In . SVG Version: 2.1.0 Build 137)  -->
  <defs>
    <style>
      .st0 {
        fill: #404041;
      }
    </style>
  </defs>
  <g>
    <path class="st0" d="M185.53,138.7l18.9,10.97-49.79,86.21-12.54,21.85-12.63-21.85-16.6-28.68-16.5,28.68-12.63,21.85-12.63-21.85-49.79-86.21,18.99-10.97,43.43,75.24,16.5-28.58,12.63-21.85,14.29-24.8,18.99,10.97-20.65,35.68,16.6,28.58,43.43-75.24Z"/>
    <path class="st0" d="M262.52,206.1c1.72,8.48,5.93,15.49,12.63,21.02,6.82,5.66,14.66,8.48,23.51,8.48,7.31,0,14.02-1.97,20.1-5.9,5.9-3.87,10.36-9,13.37-15.4l20.01,9.4c-4.79,10.2-11.93,18.38-21.39,24.53-9.71,6.33-20.41,9.5-32.09,9.5-7.99,0-15.64-1.54-22.96-4.61-7.07-3.01-13.34-7.22-18.81-12.63-5.41-5.47-9.62-11.74-12.63-18.81-3.07-7.31-4.61-14.97-4.61-22.96s1.54-15.64,4.61-22.96c3.01-7.07,7.22-13.34,12.63-18.81,5.47-5.41,11.74-9.62,18.81-12.63,7.31-3.07,14.97-4.61,22.96-4.61,6.76,0,13.31,1.11,19.64,3.32,6.08,2.15,11.68,5.22,16.78,9.22,5.04,4,9.34,8.7,12.91,14.11,3.56,5.41,6.18,11.28,7.84,17.61,1.23,4.79,1.84,9.71,1.84,14.75,0,2.46-.15,4.92-.46,7.38h-94.69ZM298.67,161.84c-7.44,0-14.26,2.06-20.47,6.18-6.02,4-10.48,9.31-13.37,15.95h67.68c-2.89-6.64-7.35-11.96-13.37-15.95-6.21-4.12-13.03-6.18-20.47-6.18Z"/>
    <path class="st0" d="M401.94,121.27h22.13v132.78h-22.13V121.27Z"/>
    <path class="st0" d="M577.22,212.09l7.1,1.94c-3.38,12.72-10.3,23.14-20.75,31.26-5.1,4-10.7,7.04-16.78,9.13-6.27,2.21-12.76,3.32-19.45,3.32-7.99,0-15.64-1.54-22.96-4.61-7.07-3.01-13.34-7.22-18.81-12.63-5.41-5.47-9.62-11.74-12.63-18.81-3.07-7.31-4.61-14.97-4.61-22.96s1.54-15.64,4.61-22.96c3.01-7.07,7.22-13.34,12.63-18.81,5.47-5.41,11.74-9.62,18.81-12.63,7.31-3.07,14.97-4.61,22.96-4.61,13.52,0,25.6,4.15,36.24,12.45,5.04,3.93,9.31,8.54,12.82,13.83,3.63,5.41,6.27,11.22,7.93,17.43l-7.1,1.94-14.29,3.87c-2.15-7.99-6.49-14.54-13-19.64-6.64-5.16-14.17-7.75-22.59-7.75-5.04,0-9.84.95-14.38,2.86-4.43,1.91-8.33,4.55-11.71,7.93-3.38,3.44-6.02,7.35-7.93,11.71-1.91,4.61-2.86,9.4-2.86,14.38s.95,9.77,2.86,14.38c1.91,4.36,4.55,8.27,7.93,11.71,3.38,3.38,7.29,6.02,11.71,7.93,4.55,1.91,9.34,2.86,14.38,2.86,8.42,0,15.95-2.58,22.59-7.75,6.52-5.1,10.85-11.65,13-19.64l14.29,3.87Z"/>
    <path class="st0" d="M685.93,139.71c7.99,0,15.64,1.54,22.96,4.61,7.07,3.01,13.34,7.22,18.81,12.63,5.41,5.47,9.62,11.74,12.63,18.81,3.07,7.31,4.61,14.97,4.61,22.96s-1.54,15.64-4.61,22.96c-3.01,7.07-7.22,13.34-12.63,18.81-5.47,5.41-11.74,9.62-18.81,12.63-7.31,3.07-14.97,4.61-22.96,4.61s-15.64-1.54-22.96-4.61c-7.07-3.01-13.34-7.22-18.81-12.63-5.41-5.47-9.62-11.74-12.63-18.81-3.07-7.31-4.61-14.97-4.61-22.96s1.54-15.64,4.61-22.96c3.01-7.07,7.22-13.34,12.63-18.81,5.47-5.41,11.74-9.62,18.81-12.63,7.31-3.07,14.97-4.61,22.96-4.61ZM649.04,198.72c0,4.98.95,9.77,2.86,14.38,1.91,4.36,4.55,8.27,7.93,11.71,3.38,3.38,7.29,6.02,11.71,7.93,4.55,1.91,9.34,2.86,14.38,2.86s9.77-.95,14.38-2.86c4.36-1.91,8.27-4.55,11.71-7.93,3.38-3.44,5.99-7.35,7.84-11.71,1.97-4.61,2.95-9.4,2.95-14.38s-.98-9.77-2.95-14.38c-1.84-4.43-4.46-8.33-7.84-11.71-3.44-3.38-7.35-6.02-11.71-7.93-4.61-1.9-9.4-2.86-14.38-2.86s-9.84.95-14.38,2.86c-4.43,1.91-8.33,4.55-11.71,7.93-3.38,3.38-6.02,7.28-7.93,11.71-1.91,4.61-2.86,9.4-2.86,14.38Z"/>
    <path class="st0" d="M1020.55,206.1c1.72,8.48,5.93,15.49,12.63,21.02,6.82,5.66,14.66,8.48,23.51,8.48,7.31,0,14.02-1.97,20.1-5.9,5.9-3.87,10.36-9,13.37-15.4l20.01,9.4c-4.79,10.2-11.93,18.38-21.39,24.53-9.71,6.33-20.41,9.5-32.09,9.5-7.99,0-15.64-1.54-22.96-4.61-7.07-3.01-13.34-7.22-18.81-12.63-5.41-5.47-9.62-11.74-12.63-18.81-3.07-7.31-4.61-14.97-4.61-22.96s1.54-15.64,4.61-22.96c3.01-7.07,7.22-13.34,12.63-18.81,5.47-5.41,11.74-9.62,18.81-12.63,7.31-3.07,14.97-4.61,22.96-4.61,6.76,0,13.31,1.11,19.64,3.32,6.08,2.15,11.68,5.22,16.78,9.22,5.04,4,9.34,8.7,12.91,14.11,3.56,5.41,6.18,11.28,7.84,17.61,1.23,4.79,1.84,9.71,1.84,14.75,0,2.46-.15,4.92-.46,7.38h-94.69ZM1056.7,161.84c-7.44,0-14.26,2.06-20.47,6.18-6.02,4-10.48,9.31-13.37,15.95h67.68c-2.89-6.64-7.35-11.96-13.37-15.95-6.21-4.12-13.03-6.18-20.47-6.18Z"/>
  </g>
  <path class="st0" d="M963,254.05v-72.87c0-8.07-2.01-15.39-5.96-21.78-3.96-6.38-9.43-11.49-16.26-15.18-6.85-3.7-14.56-5.57-22.9-5.57s-16.36,1.87-23.26,5.55c-7.32,3.92-12.84,9.05-16.4,15.25-3.73,6.5-18.32,44.01-18.94,45.59-4.69,11.76-7.75,18.83-9.91,22.91-1.48,2.8-4.12,4.27-6.75,3.74-2.02-.4-3.61-1.62-4.34-3.35-1.43-3.34.69-7.1,1.37-8.17,2.31-3.63,5-7.24,8.13-11.45l.26-.35c.85-1.14,1.72-2.31,2.63-3.55,2.12-2.95,20.53-29.08,17.5-40.72-.08-.51-.17-1.01-.28-1.52-1.59-7.34-6.43-13.45-14.38-18.16-6.49-3.83-14.39-5.78-23.51-5.78-8.44,0-16.21,1.87-23.1,5.55-6.9,3.69-12.41,8.81-16.37,15.2-3.96,6.38-5.96,13.71-5.96,21.78v72.87h21.08v-72.87c0-4.68,1.03-8.62,3.16-12.04,2.11-3.4,4.92-6.02,8.61-7.99,3.71-1.98,7.82-2.94,12.59-2.94,9.34,0,15.18,2.63,16.89,7.61,1.22,3.57-.37,6.88-1.23,8.66-3.43,7.13-8,13.34-12.43,19.36-5.03,6.83-9.77,13.28-12.5,19.57-3.43,7.93-3.87,15.59-1.27,22.15,2.39,6.01,7.33,10.99,13.57,13.67,13.06,5.6,28.24.62,34.57-11.35,4.54-8.59,13.45-30.43,17.56-42.31l.16-.42c4.78-12.86,8.75-22.09,11.18-26,2.11-3.41,4.93-6.03,8.62-8,3.7-1.98,7.87-2.94,12.74-2.94s8.67.96,12.3,2.92c3.65,1.97,6.46,4.59,8.58,8.02,2.13,3.43,3.16,7.37,3.16,12.04v72.87h21.08Z"/>
</svg>